<?xml version="1.0" encoding="UTF-8"?><svg id="uuid-23c01e15-4dfd-4103-a1f6-2292a904fc70" xmlns="http://www.w3.org/2000/svg" viewBox="0 0 166.66 167.85"><defs><style>.uuid-2df211fa-936f-42ba-89ef-f2d7fd2684af{fill:#ffbc00;}</style></defs><g id="uuid-6edaddb0-42e3-4cb3-8407-e4a4c7dbe2b3"><g><path class="uuid-2df211fa-936f-42ba-89ef-f2d7fd2684af" d="M88.86,.93c.14-.42-.54-.51-1.39-.19-.29,.11-.52,.34-.52,.51,0,.44,1.76,.15,1.91-.32Z"/><path class="uuid-2df211fa-936f-42ba-89ef-f2d7fd2684af" d="M16.44,70.44c-.47-.18-.96-.21-1.08-.06-.12,.14-.54,.69-.94,1.22-.9,1.19-.91,1.53-.04,1.53,.38,0,1.19-.53,1.8-1.18l1.11-1.18-.86-.33Z"/><path class="uuid-2df211fa-936f-42ba-89ef-f2d7fd2684af" d="M7.51,83.64c.61-.2,.52-4.39-.09-4.39-.26,0-.58,.37-.71,.83-.13,.46-.24,.9-.26,.99-.11,.6,.74,2.67,1.06,2.56Z"/><path class="uuid-2df211fa-936f-42ba-89ef-f2d7fd2684af" d="M9.07,85.54c-.9,.86-1,.89-1.21,.33-.22-.58-.24-.58-.48,.03-.3,.81-.2,4.48,.14,5.03,.4,.64,1.41-.07,1.84-1.29,.25-.7,.26-1.18,.04-1.45-.23-.28-.1-.82,.41-1.75,.93-1.69,.56-2.15-.74-.91Z"/><path class="uuid-2df211fa-936f-42ba-89ef-f2d7fd2684af" d="M7.41,76.62c0-.64-.56-.96-.78-.44-.29,.72-.23,.91,.28,.91,.27,0,.5-.21,.5-.48Z"/><path class="uuid-2df211fa-936f-42ba-89ef-f2d7fd2684af" d="M26.6,54.56c-.2,0-.28-.22-.18-.5,.11-.27,.05-.5-.13-.5s-.32,.11-.32,.25-.45,.45-.99,.69c-.59,.26-.99,.69-.99,1.06,0,.34-.15,.71-.33,.82-.49,.3-.4,.73,.2,.96,.34,.13,.76-.09,1.17-.61,.35-.45,.93-.9,1.29-1.02,.69-.22,.92-1.16,.29-1.16Z"/><path class="uuid-2df211fa-936f-42ba-89ef-f2d7fd2684af" d="M8.04,92.86c-.51,.32-.32,.66,.39,.72,.56,.04,.62-.04,.29-.42-.22-.26-.53-.39-.69-.29Z"/><path class="uuid-2df211fa-936f-42ba-89ef-f2d7fd2684af" d="M20.17,64.5c.27-.23,.5-.73,.5-1.12,0-.39,.6-1.29,1.33-2.01,.73-.71,1.32-1.41,1.32-1.55,0-.61-.74-.63-1.26-.04-.31,.36-.91,.76-1.34,.89-.76,.24-.77,.23-.21-.62,.31-.47,.7-.86,.86-.86s.29-.15,.29-.33-.29-.33-.64-.33-.74,.15-.85,.33c-.11,.18-.49,.33-.84,.33-.41,0-.8,.39-1.09,1.08-.25,.59-.92,1.49-1.5,1.99-.66,.58-1.04,1.23-1.04,1.77,0,.47,.11,.8,.25,.73,.14-.07,.77-.37,1.42-.66,.76-.35,1.38-.98,1.78-1.8,.58-1.21,.62-1.24,.9-.51,.22,.6,.07,1.06-.73,2.15-.56,.77-1.26,1.4-1.57,1.42-.3,.01-.88,.2-1.28,.41-.4,.22-1.11,.4-1.57,.4-1.03,0-1.08,.42-.16,1.28,.52,.48,.58,.7,.27,.9-.24,.15-.48,.09-.55-.13-.07-.21-.27-.39-.43-.39s-.3,.15-.3,.33,.13,.33,.29,.33,.37,.3,.47,.66c.21,.79,1.17,.88,1.45,.14,.14-.36,.44-.46,1.01-.32,1.17,.29,1.99-.06,2.21-.95,.11-.43,.57-1.02,1.03-1.32,1-.65,1.09-1.2,.17-.96-.8,.21-.91-.61-.17-1.23Z"/><path class="uuid-2df211fa-936f-42ba-89ef-f2d7fd2684af" d="M11.17,76.53c.67-.84,1.3-3.88,.95-4.52-.16-.28-1.37,2.78-1.53,3.84-.04,.31-.18,.68-.31,.8-.28,.28-.3,.78-.03,.78,.11,0,.52-.4,.91-.9Z"/><path class="uuid-2df211fa-936f-42ba-89ef-f2d7fd2684af" d="M23.88,115.01c.22,.39,.78,1.07,1.24,1.51,1.35,1.26,1.08,.03-.48-2.22-.73-1.05-1.33-2.09-1.33-2.32,0-.23-.22-.67-.49-.99-.27-.32-.71-.88-.98-1.25-.45-.6-.46-.54-.13,.66,.32,1.18,.65,1.88,2.17,4.61Z"/><path class="uuid-2df211fa-936f-42ba-89ef-f2d7fd2684af" d="M20.13,56.03c.44-.11,.89-.04,1.01,.16,.25,.41,.85,.48,.84,.11,0-.14-.39-.43-.86-.65-.67-.31-.96-.31-1.31,0-.63,.55-.59,.6,.31,.38Z"/><path class="uuid-2df211fa-936f-42ba-89ef-f2d7fd2684af" d="M39.56,134.76c0,.18,.15,.33,.33,.33s.33-.15,.33-.33-.15-.33-.33-.33-.33,.15-.33,.33Z"/><path class="uuid-2df211fa-936f-42ba-89ef-f2d7fd2684af" d="M17.88,101.2c.22-.22,.11-.52-.73-1.9q-.5-.82-.28,.33c.24,1.24,.67,1.91,1.01,1.57Z"/><path class="uuid-2df211fa-936f-42ba-89ef-f2d7fd2684af" d="M27.96,123.66c.51,.61,.97,.61,1.78,0,.59-.45,.58-.48-.25-.69-.48-.12-1.11-.13-1.4-.01h0c-.43,.17-.46,.3-.12,.7Z"/><path class="uuid-2df211fa-936f-42ba-89ef-f2d7fd2684af" d="M16.35,104.87c0-.31-.14-.65-.33-.77-.42-.26-.42,.18,0,.83,.28,.43,.32,.42,.33-.06Z"/><path class="uuid-2df211fa-936f-42ba-89ef-f2d7fd2684af" d="M15.36,107.4c0,.28,.15,.52,.33,.52s.33-.14,.33-.31-.15-.4-.33-.52c-.18-.11-.33,.03-.33,.31Z"/><path class="uuid-2df211fa-936f-42ba-89ef-f2d7fd2684af" d="M20.36,106.77c-.57-.35-.41,1.04,.18,1.64,.3,.29,.6,.48,.67,.4,.21-.21-.46-1.79-.86-2.04Z"/><path class="uuid-2df211fa-936f-42ba-89ef-f2d7fd2684af" d="M18.92,38.97c1.29,.47,.87,.69,4.67-2.47,1.1-.91,2-1.83,2.02-2.04,.01-.21,.25-.46,.52-.57,.27-.11,.5-.57,.5-1.03,0-.49,.19-.84,.46-.84,1.14,0,4.42-2.34,6.83-4.88,.87-.91,1.44-1.41,3.98-3.47,1.37-1.11,2.73-2.25,3.03-2.55,1.18-1.18,1.98-1.7,2.61-1.7,.36,0,.66-.14,.66-.32s.22-.24,.48-.14c.27,.1,.82-.05,1.23-.34,.41-.29,1-.53,1.3-.53s1.28-.49,2.16-1.1c2.37-1.61,6.66-3.64,7.24-3.42,.79,.3,.59,.78-.49,1.16-.55,.19-.99,.56-.99,.83,0,.38,.25,.42,1.24,.19,1.6-.37,2.07-.37,2.07,0,0,.17-.78,.41-1.74,.54-.96,.13-2.14,.44-2.63,.69-.49,.25-1.2,.46-1.56,.46-1.6,0-5.99,2.49-5.99,3.4,0,.17-.33,.6-.75,.96l-.75,.65,.83-.4c.46-.22,.9-.51,.99-.64,.09-.13,.96-.08,1.92,.12,1.33,.27,1.91,.27,2.4-.04,.35-.22,.88-.4,1.17-.4s.93-.28,1.42-.63c.49-.35,1.5-.79,2.25-1,.75-.2,1.54-.58,1.75-.83,.21-.25,.66-.39,.99-.3,.34,.09,.88-.12,1.23-.48,.34-.35,1.62-1.05,2.85-1.56,2.14-.89,2.26-.91,3.09-.37,.55,.36,1,.46,1.25,.26,.21-.17,1.51-.65,2.88-1.07,1.37-.42,2.54-.82,2.62-.87,.07-.06-.06-.33-.29-.61-.36-.43-.27-.5,.61-.5,.57,0,1.69,.18,2.49,.39,1.81,.48,4.48-.03,6.19-1.18,1.28-.86,3.63-1.44,3.63-.88,0,.19,.16,.35,.35,.35s.27-.13,.17-.3c-.26-.43,.37-.58,2.63-.66,1.09-.04,2.94-.2,4.11-.37,1.17-.16,2.36-.18,2.65-.03,.98,.5,3.4,.72,3.85,.35,.24-.2,1.65-.37,3.14-.39,1.72-.02,2.86-.19,3.13-.46,.23-.23,.87-.41,1.41-.4,1.49,.04,1.91-.34,1.22-1.1-.67-.74-1.17-.76-2.93-.14-1.01,.36-1.67,.39-2.98,.11-2.7-.56-2.77-.62-1.35-1.13,1-.35,1.54-.38,2.21-.11,1.34,.54,3-.2,1.93-.86-.8-.5-.19-.83,1.51-.83,1.01,0,2.12-.15,2.46-.33,.42-.22,.92-.22,1.55,.02,.69,.26,1.26,.25,2.18-.05,.89-.29,1.46-.31,1.99-.07,1.05,.48,3.74,1.09,4.82,1.09s2.49,.89,2.2,1.36c-.11,.18-.49,.23-.83,.12-.99-.31-.75,.07,.41,.65,.58,.29,1.41,.52,1.86,.52,.69,0,.79-.13,.66-.81-.1-.54,.02-.88,.37-1.01,.95-.36-2.42-2.16-4.29-2.29-.9-.06-2.02-.37-2.49-.67-.47-.31-1.25-.53-1.74-.5-.49,.03-1.91,.04-3.16,.02-1.97-.03-2.29-.12-2.44-.7-.15-.59-.45-.66-2.58-.66-1.61,0-2.53-.15-2.77-.44-.2-.24-1.19-.63-2.19-.85-1-.22-1.9-.54-2-.7-.25-.41-2.59-.15-2.74,.3-.18,.54-1.93,.45-2.51-.13-.3-.29-.58-.37-.7-.18-.11,.18-1.11,.29-2.23,.25-2.65-.09-2.99,.59-.45,.91,2.18,.27,2.78,.85,.89,.85-.73,0-1.42-.15-1.53-.33-.13-.2-.42-.22-.77-.04-.31,.16-1.17,.4-1.92,.52-1.2,.2-1.42,.13-1.89-.58-.48-.73-.67-.78-1.91-.55-1.35,.25-1.95,.73-1.96,1.57,0,.55-.98,.53-1.64-.04-.84-.72-2.35-.98-2.35-.4,0,.27,.26,.63,.58,.81,.52,.29,.49,.36-.26,.64-.84,.32-2.05,.29-3.19-.07-.34-.11-1.04,.03-1.56,.3-.52,.27-1.42,.48-1.99,.46l-1.04-.03,1.16-.36c1.13-.35,1.64-.77,1.65-1.34,0-.4-3.25,.09-4.63,.69-.64,.28-1.64,.47-2.24,.44-.59-.04-1.08,.09-1.08,.29s.22,.36,.5,.36,.5,.17,.5,.37c0,.22-.36,.3-.89,.2-.54-.1-1.36,.08-2.07,.46-.65,.35-1.41,.63-1.7,.63s-1.26,.36-2.16,.79c-2.66,1.28-4.15,1.6-4.79,1.02-.68-.62-2.11-.63-2.62-.02-.52,.63,.08,.99,1.19,.71,1.5-.38,.69,.61-.9,1.09-.81,.25-1.94,.66-2.51,.91-.57,.26-1.28,.47-1.57,.47s-.53,.15-.53,.33-.28,.33-.63,.33-.72,.23-.83,.52c-.11,.28-.34,.43-.5,.33-.65-.4-1.41,.22-1.21,1.01,.21,.82-.58,1.51-1.4,1.22-.23-.08-.79,.09-1.23,.38-.44,.29-1.04,.53-1.32,.53s-.51,.13-.51,.29-.26,.39-.58,.51c-1.91,.72-3.94,2.14-4.35,3.06-.47,1.06-2.76,2.77-3.71,2.77-.6,0-1.54,.92-2.11,2.06-.2,.4-.69,.81-1.08,.91-.39,.1-1.2,.62-1.8,1.15-.95,.85-1.01,.99-.48,1.18,.54,.19,.52,.26-.19,.7-.43,.27-1.19,.66-1.68,.88-.49,.21-1.16,.8-1.49,1.31-.33,.5-1.23,1.59-2,2.42-.77,.83-1.49,1.76-1.6,2.08-.11,.32-.33,.58-.5,.58s-.57,.26-.89,.58h0c-.32,.32-.6,.97-.62,1.44-.04,.7,.17,.94,1.12,1.28ZM102.17,5.18c.17,0,.4,.15,.52,.33,.11,.18-.03,.33-.31,.33s-.52-.15-.52-.33,.14-.33,.31-.33Zm-26.33,7.4c-.81,.04-1.01-.09-1.11-.73-.1-.72-.02-.77,.99-.62,.61,.09,1.39,.02,1.73-.16,.48-.25,.7-.2,.93,.21,.17,.29,.52,.53,.78,.53s.48,.11,.48,.25c0,.23-1.09,.38-3.81,.53ZM94.51,3.48c.33,.21,.25,.33-.33,.49-.42,.11-.96,.21-1.19,.21-.23,0-.41-.22-.41-.49,0-.54,1.2-.67,1.93-.21Zm-5.36,.43c.83,.16,.95,.94,.14,.94-.41,0-.69-.21-.69-.52s.22-.48,.55-.41Zm-5.52-1.88c.18,.11,.33,.27,.33,.35s-.15,.15-.33,.15-.33-.16-.33-.35,.15-.26,.33-.15Zm-20.81,10.11c1.09,0,1.37-.19,2.53-1.7l1.3-1.7,2.52-.08c1.49-.04,2.74-.25,3.05-.51,.29-.24,1.07-.49,1.75-.55,.67-.06,1.45-.21,1.72-.33,.27-.12,1.69-.24,3.15-.27,1.46-.03,3.06-.25,3.56-.5,.95-.46,1.21-.99,.5-1-.28,0-.25-.11,.08-.33,.76-.49,2.31-.39,2.87,.18,.4,.4,1,.47,2.88,.32,4.93-.4,10.17-.39,10.72,0,.75,.54,.26,1.16-.92,1.16-.54,0-1.36,.24-1.81,.54-.72,.47-1.07,.49-2.74,.13-2.59-.55-8.25-.02-9.4,.88-.24,.19-1.62,.53-3.08,.77-1.46,.24-2.8,.54-2.98,.67-.56,.4-3.53,.76-5.88,.7-2-.05-2.24,.01-2.24,.57,0,.5-.22,.61-1.08,.56-.59-.04-1.26,.07-1.49,.25-.23,.17-1.03,.22-1.78,.1-1.19-.19-1.34-.15-1.15,.35,.31,.82-.37,1.1-2.63,1.11-1.26,0-2.27,.19-2.73,.52-.41,.28-.89,.42-1.07,.31-.18-.11-.33-.31-.33-.43,.01-.45,3.5-1.73,4.7-1.72Zm-18.29,5.64c.37,0,.66,.06,.66,.13s-.3,.2-.66,.3c-.37,.09-.66,.04-.66-.13s.3-.3,.66-.3Z"/><path class="uuid-2df211fa-936f-42ba-89ef-f2d7fd2684af" d="M27.11,53.23c.08,0,.24-.15,.35-.33,.11-.18,.05-.33-.15-.33s-.35,.15-.35,.33,.07,.33,.15,.33Z"/><path class="uuid-2df211fa-936f-42ba-89ef-f2d7fd2684af" d="M28.95,51.3c-.74-.26-.99-.25-.99,.05,0,.22,.45,.43,.99,.47,1.26,.09,1.26-.08,0-.52Z"/><path class="uuid-2df211fa-936f-42ba-89ef-f2d7fd2684af" d="M166.48,79.25c-.35-3.29-.55-6.27-.81-11.86-.2-4.39-1.51-8.24-5.59-16.43-1.02-2.05-3.79-5.35-4.48-5.35-.42,0-2.64-1.48-3.16-2.1-.48-.58-3.5-2.69-4.34-3.04-.37-.15-1.22-.3-1.91-.32-.99-.04-1.24,.08-1.24,.55,0,.33,.41,.85,.91,1.17,.5,.32,1.51,1.04,2.24,1.61,.73,.57,2.13,1.52,3.12,2.11,2.23,1.34,2.91,2.13,3.38,3.93,.21,.78,.5,1.5,.66,1.59,.16,.1,.29,.43,.29,.74,0,.31,.22,.99,.5,1.51,.27,.52,.5,1.18,.5,1.47,0,.65,2.96,9.39,3.34,9.86,.16,.19,.08,1.21-.17,2.29-.25,1.07-.39,2.11-.31,2.32,.08,.2,0,1.37-.17,2.59-.27,1.89-.22,2.4,.29,3.47,.82,1.7,1.15,5.5,.66,7.38-.21,.82-.46,2.24-.54,3.15-.08,.91-.5,2.4-.93,3.31-.73,1.55-1.23,3.78-1.2,5.3,0,.36,.03,1.31,.05,2.11,.04,1.39-.91,5.02-1.88,7.22-.25,.58-.46,1.26-.46,1.53s-.22,.67-.5,.9c-.27,.23-.5,.52-.5,.66s-.81,1.72-1.8,3.52c-.99,1.8-2.17,4.4-2.63,5.77-.83,2.48-1.21,3.29-2.69,5.8-.43,.73-1.19,2.13-1.68,3.11-1.17,2.32-3.78,5.33-10.13,11.67-4.59,4.58-7.74,7.26-8.54,7.26-.14,0-1.14,.57-2.22,1.26-2.17,1.4-7.48,4.04-8.15,4.05-.24,0-.72,.23-1.08,.5-.35,.27-.91,.49-1.24,.49s-.6,.15-.6,.33c0,.64-7.72,3.53-10.77,4.04-1.09,.18-2.29,.52-2.65,.75-.36,.23-1.18,.52-1.82,.64-1.58,.3-2,.39-3.15,.65-.55,.12-2.4,.37-4.11,.54-2.53,.26-3.28,.23-4.04-.17-.51-.26-1.39-.48-1.94-.48s-1.01-.13-1.01-.29-.19-.28-.42-.26c-.23,.02-1.53-.14-2.9-.37-1.37-.22-3.45-.56-4.64-.76-1.19-.19-3.1-.64-4.26-.99-1.16-.36-2.61-.64-3.22-.64-1.32,0-3.84-.93-4.21-1.55-.15-.24-.48-.44-.75-.44s-.48-.12-.48-.27-.77-.62-1.71-1.05c-1.9-.86-5.3-3.01-6.57-4.16-.46-.41-1.38-1.02-2.05-1.36-1.33-.67-4.19-2.94-8.32-6.58-3.51-3.1-3.43-3.05-4.2-2.57-.54,.34-.86,.31-1.81-.17-1.33-.66-1.79-1.41-.87-1.41,.34,0,.71-.24,.83-.54,.25-.65-.63-2.11-1.26-2.11-.25,0-.65-.24-.89-.53-.24-.29-.79-.66-1.21-.82-.42-.16-.87-.55-.99-.88-.36-.93-2.1-3.4-2.4-3.4-.15,0-.37,.24-.48,.53-.11,.3-.42,.45-.69,.35-.27-.1-.57-.04-.68,.13-.41,.67-1.11,.31-1.05-.54,.05-.68-.21-1.01-1.26-1.61-.98-.56-1.3-.95-1.24-1.48,.12-1.03-.87-2.36-2.14-2.9-1.11-.46-1.4-.95-.71-1.18,.28-.09,.26-.34-.05-.92-.31-.58-.32-.83-.05-.92,.21-.07,.38-.34,.38-.6,0-.33-.4-.47-1.33-.47-.73,0-1.33-.15-1.33-.33s.15-.33,.33-.33c.56,0,.37-.72-.5-1.85-.46-.6-.83-1.21-.84-1.36,0-.15-.49-1.02-1.08-1.94-1.02-1.59-1.11-1.65-1.9-1.25-1.3,.66-1.56,.53-2.17-1.06-.31-.82-.68-1.49-.81-1.49s-.38-.48-.54-1.08c-.17-.6-.63-1.22-1.04-1.4-.92-.41-.95-1.03-.07-1.5,.36-.2,.66-.26,.66-.14s.22,.03,.49-.19c.67-.56,.3-1.03-.72-.92-1.23,.13-1.75-.82-.94-1.73,.8-.89,1.96-.75,2.1,.24,.19,1.36,1.05,.88,1.05-.59,0-1.26,.05-1.32,.83-1.12,.68,.17,.83,.09,.83-.46,0-.37-.28-1.24-.63-1.94-.95-1.93-2.33-8.11-1.97-8.82,.17-.32,.21-1.66,.09-2.98-.16-1.86-.09-2.62,.32-3.39,.29-.55,.53-1.49,.53-2.1,0-.74,.24-1.3,.74-1.7,.6-.49,.66-.68,.33-1.09-.22-.27-.32-.74-.2-1.03,.35-.92-1.3-.65-2.25,.37-.66,.71-.94,1.5-1.24,3.56-.47,3.23-.47,4.69,.01,5.87,.26,.63,.26,1.19,.02,1.88-.19,.54-.27,1.27-.18,1.62,.09,.35-.07,1.2-.36,1.89-.63,1.52-.63,1.5-.06,1.5,.25,0,.54,.21,.64,.47,.1,.26,.58,.67,1.07,.91,.52,.26,1.1,.98,1.4,1.73,.47,1.21,.47,1.32-.11,1.74-.6,.44-.59,.45,.03,.46,.6,0,.6,.03,.06,.35-.87,.5-1.15,.16-1.6-1.94-.22-1.05-.52-2.03-.66-2.19-.32-.36-.78,2.59-.51,3.28,.11,.29-.01,.59-.29,.7-.27,.1-.49,.56-.49,1.01,0,.51-.16,.77-.41,.68-.54-.18-.75-1.58-.24-1.58,.26,0,.31-.3,.16-.91-.29-1.17-.27-1.15-1.26-.77-1.51,.57-1.44,1.91,.3,5.88,.25,.57,.46,1.35,.46,1.72s.14,.76,.31,.86c.17,.1,.41,.67,.54,1.26,.13,.59,.51,1.66,.85,2.38,.34,.72,.62,1.54,.62,1.82,0,.28,.22,.94,.5,1.47,.27,.52,.5,1.42,.5,2s.2,1.34,.45,1.7c.25,.36,.54,1.05,.66,1.53,.12,.48,.32,1.16,.44,1.49,.2,.54,.17,.56-.34,.14-.32-.26-.5-.67-.4-.91,.09-.24-.2-.68-.65-.98-.45-.3-.82-.66-.82-.81s-.42-.99-.94-1.87c-.51-.87-1.21-2.34-1.55-3.25-.34-.91-.81-1.89-1.05-2.18-.24-.29-.45-.74-.45-.99-.01-.66-1.4-4.6-1.98-5.61-.26-.46-.44-1.01-.39-1.23,.04-.22-.4-1.41-.99-2.65-.59-1.24-1.03-2.44-.99-2.68,.04-.24-.16-1.18-.46-2.08-.3-.91-.47-1.84-.38-2.07,.09-.23,.05-1.03-.08-1.77-.18-.96-.07-1.93,.38-3.4,.5-1.63,.55-2.15,.23-2.54-.31-.37-.31-.58-.02-.87,.21-.21,.38-1.11,.38-2,0-1.12,.21-1.88,.66-2.46,.42-.54,.66-1.34,.66-2.22,0-1.62,.44-2.18,1.72-2.18,1.01,0,1.24-.65,.46-1.3-.46-.38-.37-1.51,.18-2.22,.16-.2,.5-1.02,.75-1.82,.85-2.65,2-5.09,2.76-5.85,.66-.66,.91-1.56,.82-3.05-.02-.27,.26-.68,.61-.93,.35-.25,.64-.7,.65-1.01,.01-.74,1.56-2.48,1.97-2.22,.2,.12,.25-.16,.14-.73-.14-.72,.01-1.11,.67-1.73,.47-.44,.85-.9,.85-1.02,0-.43,3.16-3.64,3.59-3.64,.32,0,.29-.15-.11-.55-.5-.5-.5-.58-.02-.85,.53-.3,.75-1.59,.27-1.59-.14,0-.59,.23-.99,.52-.76,.53-1.01,1.47-.39,1.47,.19,0,.25,.16,.13,.35-.12,.19-.45,.26-.74,.16-.31-.12-.89,.16-1.45,.7-1.23,1.18-1.54,.79-.62-.76,.68-1.15,.69-1.27,.17-1.65-.52-.38-.52-.46,.05-1.25,.34-.46,.87-.85,1.19-.85,.38,0,.58-.27,.58-.79,0-.59-.26-.86-1.08-1.1-.59-.18-1.04-.5-.99-.71,.05-.21,.12-.55,.17-.76,.21-.97-.89-.52-2.27,.92-1.37,1.43-1.99,2.38-3.84,5.9-.3,.58-.79,1.25-1.08,1.49-.29,.24-.52,.78-.52,1.21,0,1.04-.65,2.45-1.61,3.45-.43,.46-1.08,1.5-1.44,2.32-.71,1.62-1.78,3.97-2.41,5.32-.22,.46-.3,1.13-.17,1.48,.16,.44,0,.81-.48,1.2-.73,.57-1.77,3.93-1.99,6.42-.26,2.98-.63,5.31-.84,5.47-.13,.09-.37,1.95-.53,4.14h0c-.35,4.66-.34,5.86,.06,6.5,.16,.26,.27,1.68,.24,3.16-.05,2.29,.04,2.79,.59,3.28,.68,.62,.85,1.8,.33,2.32-.27,.27,.09,1.94,.89,4.13,.1,.27,.24,.8,.3,1.16,.2,1.1,1.16,3.92,1.66,4.89,.26,.5,.38,.91,.27,.91s.03,.33,.31,.74c.28,.41,.52,1.23,.52,1.84,0,1.23,.82,3.06,1.37,3.06,.2,0,.28,.21,.18,.46-.1,.25,.11,1,.46,1.66,.35,.66,.64,1.48,.64,1.82,0,1.18,2.57,6.26,3.45,6.84,.53,.34,.86,.87,.86,1.36,0,.77,1.52,3.43,1.96,3.43,.12,0,.4,.41,.63,.91,1.47,3.21,3.39,5.54,5.4,6.57,.89,.45,1.62,.91,1.62,1.03s-.26,.41-.58,.66c-.53,.41-.53,.49-.05,.86,.29,.23,.7,.75,.92,1.15,.32,.59,.58,.7,1.38,.54,1.04-.21,1.4,.32,.45,.68-.95,.36,.15,1.28,1.27,1.06,.87-.17,.92-.12,.76,.72-.1,.5-.08,.72,.02,.49,.21-.45,1.13-.57,1.13-.15,0,.15-.16,.43-.36,.62-.44,.44,.99,2.1,1.81,2.1,.3,0,.69,.36,.85,.8,.19,.49,.75,.95,1.46,1.18,.74,.24,1.4,.8,1.83,1.52,.39,.67,.94,1.14,1.31,1.14,.35,0,.82,.22,1.05,.5,.23,.27,.84,.5,1.37,.5s.95,.15,.95,.33-.31,.33-.69,.33c-.99,0-.63,.73,.71,1.42,.63,.32,1.1,.74,1.05,.92-.05,.18,.1,.39,.33,.45,.23,.06,1.07,.29,1.86,.51,1.18,.32,1.41,.51,1.27,1.03-.23,.89,.17,1.09,2.5,1.26,.32,.02,.66,.39,.77,.83,.26,1.06,1.63,2,3.59,2.49,.89,.22,2.03,.62,2.53,.88,.5,.26,1.62,.63,2.48,.82,.87,.19,1.99,.65,2.5,1.01,.63,.45,1.59,.69,3.02,.76,2.17,.11,4.17,.73,4.75,1.48,.19,.24,1.16,.56,2.15,.72,1,.16,2.41,.5,3.14,.77,.73,.27,2.89,.59,4.8,.72,1.91,.13,4.52,.37,5.8,.55,1.28,.18,3.05,.33,3.93,.34,1.3,.02,1.65,.14,1.78,.65,.21,.78,.24,.78,1.37-.05,.77-.57,1.06-.62,1.74-.31,.61,.28,1.41,.28,3.12,0,1.27-.21,4.02-.45,6.12-.54,2.1-.09,4.45-.37,5.23-.64,.78-.26,1.58-.48,1.77-.48s.6-.31,.91-.69c.33-.41,1.03-.73,1.71-.79,3.43-.29,7.45-1.43,10.76-3.05,3.36-1.64,4.29-2.36,5.18-4,.67-1.23,1.3-1.75,4.1-3.32,1.82-1.03,4.51-2.78,5.96-3.89,1.46-1.11,3.17-2.31,3.8-2.67,.64-.35,1.35-.83,1.6-1.06,.24-.23,.55-.42,.67-.42s.6-.34,1.05-.75c.45-.41,1.29-1.05,1.86-1.41,1.16-.74,3.77-3.65,3.77-4.21s2.01-3.65,2.86-4.4c.41-.36,1.05-1.26,1.43-1.99,.38-.73,1.65-2.36,2.84-3.63,1.18-1.27,2.15-2.5,2.15-2.74s.22-.53,.48-.63c.26-.1,.88-.71,1.37-1.35,.68-.89,.88-1.52,.86-2.66-.02-.82,.19-1.92,.46-2.44,.57-1.1,.64-2.85,.12-3.03-.64-.21,.91-4.17,2.35-5.97,.74-.93,1.44-2.07,1.55-2.55,.11-.47,.5-1.27,.85-1.78,.85-1.21,1.15-3.7,1.4-11.67,.15-4.75,.34-6.76,.65-7.12,.68-.78,.9-4.15,.51-7.79ZM11.97,52.49c.07-.32,.61-.71,1.18-.88,.58-.17,.79-.32,.47-.33-1.09-.06-.31-1.36,.81-1.36,.33,0,.6-.13,.6-.29s.37-.54,.83-.84c1.06-.7,1.06-.17,0,1.03-1.44,1.62-1.5,1.72-1.5,2.41,0,.49-.22,.68-.76,.68-.42,0-.93,.16-1.12,.36-.43,.43-.7,.03-.52-.77Zm-2.89,7.18c-.53,.53-.72,.56-1.15,.21-.74-.61-.64-.98,.37-1.36,1.19-.45,1.67,.26,.78,1.15Zm-1.31-4.63c.19-.12,.42-.15,.51-.06,.09,.09-.07,.25-.35,.35-.58,.22-.69,.03-.16-.29Zm.89,6.94c.26,.26-.27,.86-.76,.86-.26,0-.48-.13-.48-.3,0-.34,1.01-.79,1.24-.56Zm-3.13-2.94c.6-.26,1.18-.01,.81,.35-.11,.11-.47,.13-.8,.05-.58-.14-.58-.16-.01-.4Zm12.57,53.72c-.69,.03-1.03-.18-1.33-.82-.54-1.14-.51-1.28,.25-1.48,.83-.22,1.46,.53,1.18,1.4-.17,.52-.1,.63,.3,.48,.29-.11,.52-.07,.52,.09s-.42,.3-.92,.33Zm14.18,16c0-.18,.21-.13,.46,.1,.52,.48,.44,.78-.11,.44-.19-.12-.35-.36-.35-.54Zm.66,4.34c-.18,0-.33-.15-.33-.33s.15-.33,.33-.33,.33,.15,.33,.33-.15,.33-.33,.33Zm7.54,18.75c-.11,.11-.47,.13-.8,.05-.58-.14-.58-.15-.01-.4,.6-.26,1.17-.01,.81,.35Zm6.96-5.63c-.68-.52-.72-.74-.2-1.06,.21-.13,.58,.04,.83,.38,.81,1.11,.45,1.51-.63,.69Z"/><path class="uuid-2df211fa-936f-42ba-89ef-f2d7fd2684af" d="M107.99,1.54c.46,0,.83-.15,.83-.33s-.37-.33-.83-.33-.83,.15-.83,.33,.37,.33,.83,.33Z"/><path class="uuid-2df211fa-936f-42ba-89ef-f2d7fd2684af" d="M48.26,34.88c.11,.11,.4,.12,.64,.03,.26-.1,.18-.18-.2-.2-.35-.01-.55,.06-.44,.17Z"/><path class="uuid-2df211fa-936f-42ba-89ef-f2d7fd2684af" d="M47.06,36.2c-.67,.26-.72,.8-.07,.8,.5,0,1.03-.59,.76-.86-.08-.08-.4-.06-.7,.06Z"/><path class="uuid-2df211fa-936f-42ba-89ef-f2d7fd2684af" d="M42.42,39.15c.52-.27,1.22-.41,1.54-.3,.68,.22,1.56-.39,1.56-1.07,0-.61-1.62-.6-1.86,.02-.1,.26-.39,.39-.65,.3-.26-.1-1.44,.29-2.62,.86-1.19,.57-2.16,1.18-2.16,1.36,0,.49,.86,.38,1.33-.18,.23-.27,.75-.5,1.16-.5s1.18-.22,1.7-.49Z"/><path class="uuid-2df211fa-936f-42ba-89ef-f2d7fd2684af" d="M53.26,32.31c-.34,.18-.87,.41-1.19,.51-.32,.1-.58,.32-.58,.5,0,.72,.66,.65,1.64-.18,1.09-.92,1.16-1.4,.13-.84Z"/><path class="uuid-2df211fa-936f-42ba-89ef-f2d7fd2684af" d="M42.79,31.84c-.11-.11-.51-.11-.89,.02-.75,.24-.89,.67-.33,1.02,.41,.25,1.54-.71,1.22-1.04Z"/><path class="uuid-2df211fa-936f-42ba-89ef-f2d7fd2684af" d="M40.1,33.54c-.3,.12-.54,.34-.54,.51s.29,.12,.65-.11c.75-.47,.69-.71-.1-.4Z"/><path class="uuid-2df211fa-936f-42ba-89ef-f2d7fd2684af" d="M130.01,27.23c-.46,.28-.38,1.05,.12,1.24,.24,.09,.84,.09,1.34,0l.91-.17-1.03-.63c-.57-.35-1.17-.54-1.34-.44Z"/><path class="uuid-2df211fa-936f-42ba-89ef-f2d7fd2684af" d="M149.49,33.88c.08-.08-.16-.31-.54-.52-.38-.2-.69-.23-.69-.06,0,.34,1,.81,1.23,.58Z"/><path class="uuid-2df211fa-936f-42ba-89ef-f2d7fd2684af" d="M85.98,14.9c-.39,.32-.27,.41,.61,.5,.6,.06,1.33,0,1.63-.13,.41-.18,.25-.3-.61-.5-.76-.17-1.32-.12-1.63,.13Z"/><path class="uuid-2df211fa-936f-42ba-89ef-f2d7fd2684af" d="M131.55,13.96c1.84,.91,3.61,1.93,3.93,2.25,.6,.61,1.71,.65,1.61,.06-.03-.18-.51-.46-1.07-.62-.56-.16-1.1-.58-1.21-.93-.11-.35-.6-.81-1.09-1.02-.49-.21-1.54-.87-2.34-1.47-.87-.65-1.85-1.09-2.43-1.09-1.91,0-.92,1.08,2.59,2.82Z"/><path class="uuid-2df211fa-936f-42ba-89ef-f2d7fd2684af" d="M41.21,23.58c0-.27,.49-.75,1.08-1.06,.88-.47,.97-.6,.45-.7-.71-.15-2.16,.51-2.76,1.26-.59,.72-.53,1.44,.1,1.2,.29-.11,.66-.2,.83-.2s.3-.22,.3-.49Z"/><path class="uuid-2df211fa-936f-42ba-89ef-f2d7fd2684af" d="M120.09,11.31c-.23-.27-.54-.5-.7-.5-.49,0-.32,.58,.23,.79,.81,.31,.92,.24,.47-.3Z"/><path class="uuid-2df211fa-936f-42ba-89ef-f2d7fd2684af" d="M97.22,22.39c0,.39,2.51,.82,3.01,.51,.6-.37-.34-.8-1.76-.81-.68,0-1.24,.13-1.24,.3Z"/><path class="uuid-2df211fa-936f-42ba-89ef-f2d7fd2684af" d="M119.11,23.56c.81,.21,1.83,.5,2.26,.65,.57,.19,.72,.15,.55-.13-.28-.45-1.39-.91-3.22-1.32-1.85-.41-1.48,.3,.41,.79Z"/><path class="uuid-2df211fa-936f-42ba-89ef-f2d7fd2684af" d="M61.02,21.17c.42-.42,1.2-.6,2.85-.65,1.25-.04,2.44-.21,2.65-.38,.21-.17,1.46-.41,2.78-.54,1.32-.13,2.4-.34,2.4-.47s.56-.26,1.24-.3c2.47-.13,4.39-.47,4.39-.77,0-.76-1.14-.69-9.11,.58-.73,.12-1.51,.35-1.73,.53-.22,.17-.55,.22-.72,.11-.18-.11-1.24-.28-2.36-.38-1.52-.13-2.24-.05-2.83,.34-.43,.28-1,.52-1.25,.52s-.98,.35-1.62,.79c-1.08,.73-3.53,1.53-6.75,2.2-.74,.16-2.03,.64-2.85,1.08-1.29,.68-1.54,.73-1.81,.31-.27-.43-.38-.42-.88,.08-.67,.67-.46,1.24,.36,.95,.42-.15,.36,.03-.23,.68-.44,.48-1.11,.88-1.49,.87-.67,0-.67-.02-.05-.49,.92-.7,.43-.95-.97-.49-.87,.29-1.15,.54-1.01,.91,.12,.3-.08,.7-.47,.98-.98,.69-.85,1.22,.24,.94,.5-.13,1.5-.31,2.23-.41,1.17-.16,2.68-.86,3.16-1.45,.51-.63,3.32-2.1,5.08-2.65,1.12-.35,2.34-.78,2.7-.96,1.85-.88,3.34-1.34,4.35-1.34,.62,0,1.38-.26,1.7-.58Z"/><path class="uuid-2df211fa-936f-42ba-89ef-f2d7fd2684af" d="M128.61,27.59c.08-.08-.16-.31-.54-.52-.38-.2-.69-.23-.69-.06,0,.34,1,.81,1.24,.58Z"/><path class="uuid-2df211fa-936f-42ba-89ef-f2d7fd2684af" d="M34.63,38.38c-1.31,.7-1.6,1.25-.79,1.52,.44,.15,2.66-1.77,2.37-2.05-.11-.11-.82,.13-1.58,.53Z"/><path class="uuid-2df211fa-936f-42ba-89ef-f2d7fd2684af" d="M49.71,33.91c-.12,.12-.1,.35,.05,.51,.33,.33,1.39,0,1.39-.44,0-.35-1.11-.4-1.44-.07Z"/><path class="uuid-2df211fa-936f-42ba-89ef-f2d7fd2684af" d="M27.86,46.4c.08-.23-.19-.31-.72-.21-.46,.09-.84,.3-.84,.48,0,.43,1.41,.19,1.56-.27Z"/><path class="uuid-2df211fa-936f-42ba-89ef-f2d7fd2684af" d="M31.48,41.53c-.16,.27-.64,.81-1.08,1.19-.44,.38-.79,.91-.79,1.17,0,.28,.69-.16,1.65-1.06,.91-.85,1.62-1.65,1.58-1.79-.11-.39-1.06-.05-1.36,.48Z"/><path class="uuid-2df211fa-936f-42ba-89ef-f2d7fd2684af" d="M57.45,30.03c0,.18,.22,.23,.5,.13,.27-.11,.5-.25,.5-.32s-.22-.13-.5-.13-.5,.14-.5,.32Z"/><path class="uuid-2df211fa-936f-42ba-89ef-f2d7fd2684af" d="M146.59,20.95c.64,.3,1.58,.9,2.1,1.34,.52,.43,1.2,.79,1.52,.79,.63,0,2.88,2.56,2.54,2.9-.11,.11-.7,.03-1.3-.19-.6-.22-1.26-.4-1.47-.4-.69,0-.04,.93,.95,1.34,1.12,.46,1.17,.6,.42,1.15-.72,.52-.37,1.03,.87,1.28,.82,.16,1,.36,1.01,1.12,0,.64,.09,.78,.29,.47,.18-.29,.36-.33,.5-.11,.12,.19,.06,.44-.12,.55-.61,.38-.35,.83,.47,.83,.45,0,.89,.13,.99,.3,.1,.16,.91,.47,1.81,.69,1.9,.46,3.5,1.83,2.55,2.2-.31,.12-.89,.07-1.29-.11-.46-.21-1.03-.22-1.55-.02-.46,.17-1.17,.24-1.58,.16-.46-.09-.88,.06-1.07,.39-.22,.37-.4,.42-.57,.17-.14-.2-.57-.47-.94-.58-.61-.19-.67-.1-.54,.78,.16,1.09-.41,1.39-.68,.36-.1-.38-.94-.99-2.07-1.51-1.79-.82-2.81-.91-2.81-.24,0,.32,1.46,1.06,2.09,1.06,.22,0,.7,.45,1.06,1.01,.97,1.48,5.74,5.05,6.49,4.85,.91-.24,3.37,1.07,3.14,1.67-.12,.32-.03,.43,.27,.31,.26-.1,.76,.24,1.17,.79,.71,.96,1.69,1.31,1.69,.6,0-.2,.22-.28,.5-.18,1.08,.42,2.08-.38,2.72-2.17,1.23-3.41,.88-9.81-.58-10.71-.18-.11-.32-.57-.32-1.03,0-.59-.17-.81-.58-.77-1.14,.12-1.36-.03-1.75-1.21-.27-.82-.68-1.29-1.32-1.51-.51-.18-1-.61-1.09-.96-.09-.35-.42-.64-.73-.64-.57,0-2.39-1.14-2.98-1.88-.56-.7-2.02-1.1-2.44-.68-.28,.28-.37,.19-.37-.36,0-.4-.18-.73-.39-.73s-1-.28-1.74-.62c-1.96-.9-7-2.69-7.58-2.69-.12,0-.23,.14-.23,.31,0,.32,.91,.89,2.98,1.87Zm10.53,18.69c-.23,0-.64-.15-.91-.33-.39-.25-.3-.32,.41-.33,.5,0,.91,.14,.91,.33s-.19,.33-.41,.33Z"/><path class="uuid-2df211fa-936f-42ba-89ef-f2d7fd2684af" d="M31.19,49.41c.35,.13,1.11-.4,2.3-1.63,.98-1.01,1.9-1.83,2.06-1.83s.48-.23,.72-.52c.24-.29,1-.81,1.7-1.17,2.53-1.29,.9-1.81-1.92-.61-3,1.27-3.14,1.36-2.71,1.88,.49,.59,0,.93-1.7,1.2-.71,.11-1.79,.69-2.61,1.39h0c-.77,.66-1.39,1.34-1.39,1.51,0,.61,.94,.67,1.99,.13,.58-.3,1.29-.45,1.58-.35Z"/><path class="uuid-2df211fa-936f-42ba-89ef-f2d7fd2684af" d="M29.29,34.85c-.18-.11-1,.47-1.82,1.29-.82,.82-1.8,1.66-2.17,1.85-.37,.2-1.19,1.06-1.82,1.92h0c-1.4,1.91-1.54,2.71-.34,1.93,.45-.29,1.11-.54,1.47-.54s.75-.3,.86-.66c.13-.42,.5-.66,.99-.66,.53,0,.82-.22,.89-.68,.06-.37,.18-.64,.27-.61,.09,.04,.5-.11,.91-.33,1.05-.56,.99,.16-.08,1.01-.9,.71-1.08,1.27-.4,1.27,.59,0,4.94-4.01,5.51-5.09,.28-.53,.75-.88,1.18-.88,.77,0,3.32-2.34,3.32-3.05,0-.24,.33-.48,.72-.53,.86-.12,1.57-.89,1.28-1.37-.12-.19-.66-.35-1.2-.35-.75,0-1.13,.24-1.55,.98-.31,.54-.79,1.06-1.06,1.15-1.25,.44-3.67,2.11-4.45,3.05-1.25,1.52-1.11,2.41,.19,1.23,.33-.3,.61-.41,.61-.23,0,.5-.74,1.11-1.35,1.11-.31,0-.79,.34-1.08,.75-.44,.63-.52,.65-.54,.17,0-.32-.24-.58-.51-.58-.64,0-.64-.8,0-1.45,.3-.3,.37-.58,.17-.7Z"/></g></g></svg>