<?xml version="1.0" encoding="UTF-8"?><svg id="Layer_2" xmlns="http://www.w3.org/2000/svg" viewBox="0 0 325.1 488.33"><defs><style>.cls-1{fill:#fc9500;}.cls-2{fill:#e82f3e;}</style></defs><g id="Layer_1-2"><g><path class="cls-2" d="M167.4,0c0,11.23,0,21.2,0,31.18-.02,22.58,5.96,43.55,18.93,61.91,16.54,23.43,24.27,49.1,23.26,77.61-.15,4.21,.03,8.43,.08,12.64,0,.33,.2,.65,.49,1.55,8.95,.38,17.11-2.59,22.57-9.47,5.07-6.39,8.26-14.26,12.35-21.62,8.8,8.91,15.63,20.23,18.22,33.79,3.98,20.87-.85,39.54-14.16,56.22-11.53,14.45-5.39,33.98,11.98,38.5,9.77,2.54,18.05-.58,24.47-8.26,5.51-6.59,10.77-13.37,16.09-20,.58,.18,1.09,.2,1.16,.38,7.73,20.23,18.1,39.5,20.89,61.47,5.79,45.52-6.36,85.53-36.82,119.68-25.47,28.55-57.32,46.13-95.46,50.75-42.23,5.11-83.19,1.44-120-22.56C31.35,437.65,7.46,400.83,1.37,353.29c-5.72-44.62,6.47-84.38,35.09-119.08,21.23-25.74,42.28-51.63,63.82-77.1,16.83-19.91,20.46-41.36,10.69-65.59-10.07-24.97-1.96-51.61,20.03-67.11,11.6-8.17,23.56-15.83,36.4-24.41Zm88.69,329.35c-1.89,1.71-3.18,2.78-4.36,3.96-6.6,6.56-13.06,13.27-19.79,19.69-7.9,7.54-17.35,9.26-27.29,5.21-16.42-6.69-20.43-25.15-9.18-40.26,16.93-22.74,19.04-46.96,6.65-72.29-11.71-23.96-23.81-47.74-35.76-71.58-.57-1.14-1.34-2.17-2.5-4.03-1.92,21.46-3.75,41.89-5.57,62.31-1.57,17.55-8.31,32.53-22.11,43.88-8.54,7.02-17.17,13.94-25.85,20.78-10.23,8.05-20.27,16.2-27.23,27.54-10.78,17.57-12.9,36.7-11.41,56.76,2.59,35.06,27.89,64.79,62.53,70.62,14.03,2.36,28.68,1.62,43.04,1.36,21.62-.39,39.72-9.29,54.46-24.98,17.81-18.96,26.87-41.7,28.3-67.49,.57-10.33-.75-20.54-3.91-31.47Z"/><path class="cls-1" d="M256.08,329.35c3.16,10.93,4.48,21.14,3.91,31.47-1.43,25.8-10.49,48.53-28.3,67.49-14.74,15.69-32.84,24.59-54.46,24.98-14.35,.26-29,1-43.04-1.36-34.65-5.82-59.94-35.56-62.53-70.62-1.48-20.06,.63-39.19,11.41-56.76,6.96-11.34,17-19.49,27.23-27.54,8.69-6.84,17.31-13.76,25.85-20.78,13.8-11.35,20.55-26.33,22.11-43.88,1.82-20.43,3.65-40.86,5.57-62.31,1.16,1.86,1.93,2.89,2.5,4.03,11.95,23.85,24.05,47.62,35.76,71.58,12.38,25.34,10.28,49.56-6.65,72.29-11.26,15.11-7.24,33.57,9.18,40.26,9.94,4.05,19.39,2.33,27.29-5.21,6.73-6.42,13.19-13.13,19.79-19.69,1.18-1.18,2.47-2.25,4.36-3.96Z"/></g></g></svg>